<svg xmlns="http://www.w3.org/2000/svg" viewBox="0 0 200 40.5"><defs><style>.cls-1{fill:#fff;}.cls-2{fill:#040000;}</style></defs><g id="레이어_2" data-name="레이어 2"><g id="레이어_1-2" data-name="레이어 1"><path class="cls-1" d="M191.12,40.5c-19,0-39.27-2.62-51-6.73-4.77-1.68-8.71-3.24-12.19-4.62-8.71-3.46-15-6-27.06-7.52-12.62-1.63-22.72-.85-38,.34l-5.07.4c-12,.91-22.79,1.43-32.4-1.55A56.27,56.27,0,0,1,.68,5.67,2.61,2.61,0,0,1,.84,2a2.55,2.55,0,0,1,3.63.16C9.8,8,18.19,13.14,26.92,15.85s19,2.21,30.49,1.34l5.06-.4c15.6-1.21,25.91-2,39.05-.31,12.69,1.64,19.58,4.37,28.3,7.83,3.43,1.37,7.32,2.91,12,4.55,10.25,3.59,32,7.11,55.53,6.34a2.6,2.6,0,0,1,.17,5.2Q194.35,40.5,191.12,40.5Z"/><path class="cls-2" d="M17.61,22.64c-2.49-1.05-4.88-1.86-4.16-3.95.56-1.67,2.25-2.94,4.9-2.94a6.88,6.88,0,0,1,5,2.31l4.14-3.83a10.13,10.13,0,0,0-7.67-3.18c-5.89,0-10.72,3.33-12.29,7.94C6,23.42,9.26,25.42,12.27,26.73c2.43,1.08,4.95,2.08,4.19,4.31-.62,1.81-2.44,3.18-5.31,3.18a8.1,8.1,0,0,1-6.26-3l-4.22,4a11.67,11.67,0,0,0,8.7,3.7c6.65,0,11.49-3.68,13-8.24C24.1,25.72,20.71,24,17.61,22.64Z"/><path class="cls-1" d="M41.51,0a5.38,5.38,0,0,0-5,3.53c-.7,2.05.43,3.52,2.61,3.52a5.42,5.42,0,0,0,5-3.52C44.84,1.43,43.7,0,41.51,0Z"/><polygon class="cls-2" points="25.34 38.26 31.52 38.26 40.58 11.7 34.41 11.7 25.34 38.26"/><path class="cls-2" d="M48.4,33.83c-.64,0-1.14-.54-.62-2.08L58.6.06H52.42L41.72,31.43c-1.58,4.62-.95,7.48,3.43,7.48a10.17,10.17,0,0,0,3.44-.54l.81-4.65A3.86,3.86,0,0,1,48.4,33.83Z"/><path class="cls-2" d="M66.93.13l-13,38.13H60l2.3-6.75L68,26.73l2.84,11.53h6.71L73,22.52,85.7,11.7H79L65,23.92h-.17L72.3,2.1A17.34,17.34,0,0,1,66.93.13Z"/><path class="cls-2" d="M95,16.44h-.17L96,11.7H91L81.89,38.26h6.17l5.53-16.2c3-4,6-5.49,8.09-5.49a7.53,7.53,0,0,1,2.56.43l2.92-5.41a5.6,5.6,0,0,0-2.8-.54C101.54,11.05,98.1,13,95,16.44Z"/><path class="cls-2" d="M121.42,11.05c-6.57,0-14.27,5.11-17.29,14s1.22,13.91,7.78,13.91,14.26-5.1,17.26-13.91S128,11.05,121.42,11.05Zm-7.78,22.78c-3.86,0-5-3.51-3.16-8.83s5.34-8.86,9.2-8.86,5,3.54,3.15,8.86S117.5,33.83,113.64,33.83Z"/><path class="cls-2" d="M149.83,11.05c-4.18,0-8.47,1.65-12,3.48l.86,4.16c2.8-1.43,5.67-2.62,8.28-2.62,3.56,0,3.89,2.38,3,5.23-11.2,1.17-16.89,4.14-18.83,9.82-1.58,4.63.51,7.79,5.12,7.79,3.11,0,6.34-1.56,9.4-3.59h.17l-.53,2.94h5.06l5.36-15.72C158.26,15.14,156.41,11.05,149.83,11.05Zm-3.21,20.09C144.05,33,142.06,34,139.91,34s-3.44-1-2.64-3.37c.92-2.68,3.94-4.57,11.39-5.47Z"/><path class="cls-2" d="M187,.06l-3.29,9.63L182.52,14a6.73,6.73,0,0,0-5.91-2.92c-5.77,0-13,5.3-15.91,14s-.5,13.91,6.06,13.91c2.83,0,6.06-1.56,8.68-3.53h.18l-.51,2.88h5.06l13-38.2ZM176.55,30.78c-2.45,2.07-4.47,3-6.51,3-3.8,0-4.94-3-3-8.82,1.89-5.54,5.75-8.74,9.09-8.74a5.44,5.44,0,0,1,4.61,2.21Z"/></g></g></svg>