<?xml version="1.0" encoding="utf-8"?>
<!-- Generator: Adobe Illustrator 24.2.1, SVG Export Plug-In . SVG Version: 6.00 Build 0)  -->
<svg version="1.1" id="레이어_1" xmlns="http://www.w3.org/2000/svg" xmlns:xlink="http://www.w3.org/1999/xlink" x="0px"
	 y="0px" viewBox="0 0 200 40.5" style="enable-background:new 0 0 200 40.5;" xml:space="preserve">
<style type="text/css">
	.st0{fill:#F4AA16;}
	.st1{fill:#040000;}
</style>
<g>
	<g>
		<path class="st0" d="M191.1,40.5c-19,0-39.3-2.6-51-6.7c-4.8-1.7-8.7-3.2-12.2-4.6c-8.7-3.5-15-6-27.1-7.5
			c-12.6-1.6-22.7-0.8-38,0.3c-1.6,0.1-3.3,0.3-5.1,0.4c-12,0.9-22.8,1.4-32.4-1.5C11.6,16.5,3.5,8.8,0.7,5.7C-0.3,4.6-0.2,3,0.8,2
			s2.7-0.9,3.6,0.2c5.3,5.9,13.7,11,22.4,13.7c8.7,2.7,19,2.2,30.5,1.3c1.8-0.1,3.4-0.3,5.1-0.4c15.6-1.2,25.9-2,39.1-0.3
			c12.7,1.6,19.6,4.4,28.3,7.8c3.4,1.4,7.3,2.9,12,4.5c10.2,3.6,32,7.1,55.5,6.3c1.4-0.1,2.6,1.1,2.7,2.5c0,1.4-1.1,2.6-2.5,2.7
			C195.4,40.5,193.3,40.5,191.1,40.5z"/>
	</g>
	<g>
		<path class="st1" d="M17.6,22.6c-2.5-1.1-4.9-1.9-4.2-4c0.6-1.7,2.3-2.9,4.9-2.9c2.1,0,3.6,1,5,2.3l4.1-3.8
			c-1.6-1.7-4-3.2-7.7-3.2c-5.9,0-10.7,3.3-12.3,7.9c-1.5,4.4,1.7,6.4,4.8,7.7c2.4,1.1,5,2.1,4.2,4.3c-0.6,1.8-2.4,3.2-5.3,3.2
			c-2.7,0-4.5-1.1-6.3-3l-4.2,4c1.8,2.1,5.1,3.7,8.7,3.7c6.6,0,11.5-3.7,13-8.2C24.1,25.7,20.7,24,17.6,22.6z"/>
		<path class="st0" d="M41.5,0c-2.2,0-4.3,1.4-5,3.5c-0.7,2.1,0.4,3.5,2.6,3.5c2.2,0,4.3-1.5,5-3.5C44.8,1.4,43.7,0,41.5,0z"/>
		<polygon class="st1" points="25.3,38.3 31.5,38.3 40.6,11.7 34.4,11.7 		"/>
		<path class="st1" d="M48.4,33.8c-0.6,0-1.1-0.5-0.6-2.1L58.6,0.1h-6.2L41.7,31.4c-1.6,4.6-0.9,7.5,3.4,7.5c1.5,0,2.6-0.2,3.4-0.5
			l0.8-4.7C48.9,33.8,48.7,33.8,48.4,33.8z"/>
		<path class="st1" d="M66.9,0.1l-13,38.1h6l2.3-6.7l5.7-4.8l2.8,11.5h6.7L73,22.5l12.7-10.8h-6.8L65,23.9h-0.2l7.4-21.8
			C70.3,1.7,68.5,1,66.9,0.1z"/>
		<path class="st1" d="M95,16.4h-0.2l1.1-4.7H91l-9.1,26.6h6.2l5.5-16.2c3-4,6-5.5,8.1-5.5c1.1,0,1.7,0.2,2.6,0.4l2.9-5.4
			c-0.7-0.4-1.5-0.5-2.8-0.5C101.5,11.1,98.1,13,95,16.4z"/>
		<path class="st1" d="M121.4,11.1c-6.6,0-14.3,5.1-17.3,14c-3,8.8,1.2,13.9,7.8,13.9c6.6,0,14.3-5.1,17.3-13.9
			C132.2,16.2,128,11.1,121.4,11.1z M113.6,33.8c-3.9,0-5-3.5-3.2-8.8c1.8-5.3,5.3-8.9,9.2-8.9s5,3.5,3.1,8.9
			C121,30.3,117.5,33.8,113.6,33.8z"/>
		<path class="st1" d="M149.8,11.1c-4.2,0-8.5,1.6-12,3.5l0.9,4.2c2.8-1.4,5.7-2.6,8.3-2.6c3.6,0,3.9,2.4,3,5.2
			c-11.2,1.2-16.9,4.1-18.8,9.8c-1.6,4.6,0.5,7.8,5.1,7.8c3.1,0,6.3-1.6,9.4-3.6h0.2l-0.5,2.9h5.1l5.4-15.7
			C158.3,15.1,156.4,11.1,149.8,11.1z M146.6,31.1c-2.6,1.8-4.6,2.9-6.7,2.9c-2.2,0-3.4-1-2.6-3.4c0.9-2.7,3.9-4.6,11.4-5.5
			L146.6,31.1z"/>
		<path class="st1" d="M187,0.1l-3.3,9.6l-1.2,4.3c-1.4-1.8-2.9-2.9-5.9-2.9c-5.8,0-13,5.3-15.9,14c-3,8.8-0.5,13.9,6.1,13.9
			c2.8,0,6.1-1.6,8.7-3.5h0.2l-0.5,2.9h5.1l13-38.2H187z M176.5,30.8c-2.4,2.1-4.5,3-6.5,3c-3.8,0-4.9-3.1-3-8.8
			c1.9-5.5,5.7-8.7,9.1-8.7c1.8,0,3.4,0.6,4.6,2.2L176.5,30.8z"/>
	</g>
</g>
</svg>
